<svg version="1.2" baseProfile="tiny-ps" xmlns="http://www.w3.org/2000/svg" viewBox="0 0 633 196" width="633" height="196">
	<title>Vertex IT guidelines logo svg</title>
	<style>
		tspan { white-space:pre }
		.shp0 { fill: #161721 } 
		.shp1 { fill: #ff322e } 
	</style>
	<g id="vertex-it">
		<path id="Layer" fill-rule="evenodd" class="shp0" d="M136.61 88.83L159.78 34.25C165.37 34.93 171.24 35.38 177.42 35.58L142.24 110.38L131.28 110.38L95.79 35.58C101.87 35.48 107.89 35.03 113.86 34.25L136.61 88.83ZM258.74 78.09L201.04 78.09C201.53 84.17 204.05 88.85 208.6 92.16C213.19 95.42 218.91 97.05 225.78 97.05C234.47 97.05 241.75 94.51 247.63 89.42C250.35 93.37 253.33 96.87 256.59 99.93C247.31 107.54 236.59 111.32 224.44 111.27C212.5 111.27 202.87 107.69 195.56 100.53C188.3 93.32 184.67 84.02 184.67 72.61C184.67 61.5 188.23 52.37 195.34 45.21C202.5 37.99 211.53 34.39 222.45 34.39C233.56 34.39 242.49 37.82 249.26 44.68C256.07 51.54 259.48 60.56 259.48 71.72C259.48 74.04 259.23 76.16 258.74 78.09ZM200.89 66.24L243.85 66.24C243.55 61.3 241.53 57.2 237.78 53.94C234.02 50.63 228.91 48.98 222.45 48.98C215.78 48.98 210.52 50.78 206.67 54.39C202.82 57.94 200.89 61.89 200.89 66.24ZM275.62 110.38L275.62 35.58C281.01 35.28 286.31 34.84 291.55 34.25L291.55 46.24C293.37 42.88 296.48 40.07 300.88 37.79C305.28 35.52 309.84 34.39 314.58 34.39C316.01 34.39 317.74 34.53 319.77 34.83L316.43 50.16C315.54 49.97 314.14 49.87 312.22 49.87C306.34 49.87 301.52 51.64 297.77 55.2C294.02 58.7 292.14 63.25 292.14 68.83L292.14 110.38L275.62 110.38ZM326.58 34.98L335.39 34.98L335.39 16.91C341.37 16.91 346.67 16.81 351.32 16.62L351.32 34.98L372.42 34.98C372.23 38 372.13 42.61 372.13 48.84L351.32 49.28L351.32 85.65C351.32 92.9 354.11 96.55 359.68 96.61C363.34 96.61 367.58 95.64 372.42 93.72C373.41 98.45 374.77 102.9 376.5 107.04C371.02 109.86 363.98 111.27 355.39 111.27C348.63 111.27 343.59 109.57 340.28 106.16C337.02 102.7 335.39 97.3 335.39 89.94L335.39 49.42L326.58 49.58L326.58 34.98ZM458.27 78.09L400.57 78.09C401.07 84.17 403.58 88.85 408.12 92.16C412.72 95.42 418.45 97.05 425.31 97.05C434 97.05 441.28 94.51 447.15 89.42C449.87 93.37 452.86 96.87 456.12 99.93C446.84 107.54 436.12 111.32 423.98 111.27C412.02 111.27 402.39 107.69 395.09 100.53C387.83 93.32 384.2 84.02 384.2 72.61C384.2 61.5 387.76 52.37 394.86 45.21C402.02 37.99 411.06 34.39 421.97 34.39C433.08 34.39 442.02 37.82 448.78 44.68C455.6 51.54 459 60.56 459 71.72C459 74.04 458.76 76.16 458.27 78.09ZM400.42 66.24L443.38 66.24C443.08 61.3 441.06 57.2 437.3 53.94C433.56 50.63 428.45 48.98 421.97 48.98C415.31 48.98 410.05 50.78 406.2 54.39C402.35 57.94 400.42 61.89 400.42 66.24ZM465.53 109.78L493.89 72.01L466.42 35.58C472.09 35.28 478.41 34.84 485.38 34.25L503.59 58.83L521.59 34.25C528.45 34.84 534.77 35.28 540.55 35.58L513.15 72.17L541.51 109.78C535.44 109.78 528.95 110.23 522.03 111.12L503.45 85.34L484.63 111.12C478.06 110.23 471.7 109.78 465.53 109.78Z" />
		<path id="Layer" class="shp1" d="M561.51 1.81C564.53 1.81 567.12 2.87 569.29 4.99C571.46 7.11 572.55 9.63 572.55 12.54C572.55 15.46 571.46 18 569.29 20.17C567.12 22.34 564.53 23.43 561.51 23.43C558.4 23.43 555.76 22.44 553.58 20.46C551.46 18.44 550.4 15.87 550.4 12.77C550.4 9.6 551.46 6.99 553.58 4.91C555.76 2.84 558.4 1.81 561.51 1.81ZM553 34.98L569.22 34.98L569.22 110.38L553 110.38L553 34.98ZM583.14 34.98L591.95 34.98L591.95 16.91C597.92 16.91 603.23 16.81 607.88 16.62L607.88 34.98L628.98 34.98C628.79 38 628.69 42.61 628.69 48.84L607.88 49.28L607.88 85.65C607.88 92.9 610.67 96.55 616.25 96.61C619.9 96.61 624.15 95.64 628.98 93.72C629.97 98.45 631.33 102.9 633.06 107.04C627.58 109.86 620.54 111.27 611.95 111.27C605.18 111.27 600.15 109.57 596.84 106.16C593.58 102.7 591.95 97.3 591.95 89.94L591.95 49.42L583.14 49.58L583.14 34.98Z" />
		<path id="Layer" class="shp1" d="M11.63 107.35C5.2 107.35 0 102.15 0 95.72C0 89.29 5.2 84.09 11.63 84.09C18.06 84.09 23.26 89.29 23.26 95.72C23.26 102.15 18.06 107.35 11.63 107.35Z" />
		<path id="Layer" class="shp1" d="M42.47 74.99C32.41 74.99 24.27 66.85 24.27 56.79C24.27 46.72 32.41 38.58 42.47 38.58C52.53 38.58 60.67 46.72 60.67 56.79C60.67 66.85 52.53 74.99 42.47 74.99Z" />
	</g>
	<path id="guidelines" fill="#ff322e" aria-label="guidelines"  d="M281.18 182.99L276.88 189.95C281.69 193.65 289.46 195.57 294.79 195.57C308.41 195.57 314.4 188.32 314.4 175.89L314.4 140.67C311 140.59 307.82 140.22 304.41 139.63L304.41 144.37C302.12 141.48 297.75 139.93 292.57 139.93C281.99 139.93 274.74 147.4 274.74 158.8C274.74 170.27 282.29 177.44 292.57 177.44C297.46 177.44 301.82 176.04 304.41 172.86L304.41 176.48C304.41 181.74 303.08 186.69 294.35 186.69C290.8 186.69 286.87 185.88 281.18 182.99ZM303.82 158.94C303.82 161.46 303.15 163.31 301.97 164.79C300.34 166.86 297.83 167.97 294.72 167.97C289.61 167.97 285.62 165.09 285.62 158.8C285.62 152.58 289.76 149.4 294.87 149.4C297.83 149.4 300.12 150.43 301.67 152.21C303.01 153.84 303.82 156.13 303.82 158.94ZM359.62 176.48L359.62 140.15L349.18 140.15L349.18 155.84C349.18 163.31 346.81 167.68 341.04 167.68C335.42 167.68 332.9 164.12 332.9 157.61C332.9 151.84 333.35 146.07 333.64 140.59C330.02 140.44 326.54 140.07 323.06 139.63C322.54 145.48 322.02 153.1 322.02 159.17C322.02 169.53 327.06 177.44 338.75 177.44C342.37 177.44 346.52 175.96 349.18 173.52L349.18 177.59C352.73 177.07 356.06 176.7 359.62 176.48ZM373.16 124.09C369.46 124.09 366.57 126.68 366.57 130.53C366.57 134.3 369.53 136.89 373.16 136.89C376.71 136.89 379.67 133.93 379.67 130.45C379.67 126.98 376.78 124.09 373.16 124.09ZM378.34 140.22L367.9 140.22L367.9 177L378.34 177ZM425.11 176.56L425.11 122.68C421.63 123.28 418.37 123.57 414.89 123.57L414.89 143.7C412.53 141.33 408.75 139.93 403.35 139.93C392.1 139.93 385.22 147.4 385.22 158.8C385.22 170.12 392.77 177.44 403.57 177.44C408.53 177.44 412.3 176.04 414.89 172.86L414.89 177.59C418.37 177.07 421.63 176.7 425.11 176.56ZM405.42 149.25C408.31 149.25 410.68 150.29 412.3 152.06C413.71 153.76 414.52 156.06 414.52 158.94C414.52 161.46 413.86 163.46 412.67 164.94C410.97 167.01 408.31 168.12 405.35 168.12C399.87 168.12 395.8 165.23 395.8 158.8C395.8 152.43 400.02 149.25 405.42 149.25ZM442.35 162.13L468.47 162.13C468.84 160.72 468.99 159.54 468.99 158.13C468.99 147.33 461.44 139.93 450.78 139.93C439.76 139.93 431.99 147.84 431.99 158.57C431.99 169.53 439.68 177.44 451.6 177.44C457.74 177.44 462.77 175.89 467.21 172.34C465.66 170.49 463.81 168.27 462.18 165.68C459.89 167.45 456.56 168.49 452.56 168.49C447.45 168.49 443.09 166.64 442.35 162.13ZM459.07 154.87L442.27 154.87C442.2 152.73 444.64 149.03 450.71 149.03C456.19 149.03 458.85 152.14 459.07 154.87ZM475.5 123.57L475.5 165.68C475.5 173.45 478.31 177.44 483.94 177.44C486.53 177.44 488.67 176.85 490.82 175.74C490.15 173 489.41 170.27 488.67 167.45C488.45 167.53 488.01 167.68 487.56 167.68C486.45 167.68 485.93 166.94 485.93 165.16L485.93 122.68C482.46 123.05 478.98 123.42 475.5 123.57ZM501.18 124.09C497.48 124.09 494.59 126.68 494.59 130.53C494.59 134.3 497.55 136.89 501.18 136.89C504.73 136.89 507.69 133.93 507.69 130.45C507.69 126.98 504.8 124.09 501.18 124.09ZM506.36 140.22L495.92 140.22L495.92 177L506.36 177ZM514.65 140.67L514.65 177L525.08 177L525.08 162.5C525.08 153.69 527.15 149.47 533.29 149.47C538.92 149.47 541.29 153.02 541.29 160.87C541.29 165.01 540.92 171.01 540.47 176.56C544.1 176.7 547.58 177.07 550.91 177.59C551.79 172.19 552.16 164.05 552.16 157.54C552.16 147.25 546.98 139.93 536.03 139.93C531.81 139.93 527.82 141.18 525.08 144.51L525.08 139.63C521.53 140.15 518.2 140.44 514.65 140.67ZM568.81 162.13L594.94 162.13C595.31 160.72 595.45 159.54 595.45 158.13C595.45 147.33 587.91 139.93 577.25 139.93C566.22 139.93 558.45 147.84 558.45 158.57C558.45 169.53 566.15 177.44 578.06 177.44C584.21 177.44 589.24 175.89 593.68 172.34C592.12 170.49 590.27 168.27 588.65 165.68C586.35 167.45 583.02 168.49 579.03 168.49C573.92 168.49 569.55 166.64 568.81 162.13ZM585.54 154.87L568.74 154.87C568.67 152.73 571.11 149.03 577.18 149.03C582.65 149.03 585.32 152.14 585.54 154.87ZM603.67 164.64L600.12 172.78C603.96 175.52 610.25 177.44 617.58 177.44C626.68 177.44 632.45 172.78 632.45 165.53C632.45 157.24 624.02 155.61 617.36 154.21C613.44 153.39 611.96 152.58 611.96 151.03C611.96 149.03 613.14 148.44 616.4 148.44C620.39 148.44 625.28 150.51 627.79 152.28L631.94 144.51C628.16 141.78 622.17 139.93 616.47 139.93C607.44 139.93 601.08 143.63 601.08 151.62C601.08 158.8 608.55 161.09 613.88 162.13C618.69 163.16 621.58 163.75 621.58 165.9C621.58 167.75 620.39 168.64 616.91 168.64C612.62 168.64 606.55 166.64 603.67 164.64Z" />
</svg>